<svg width="325" height="50" viewBox="0 0 325 50" fill="none" xmlns="http://www.w3.org/2000/svg">
<rect width="325" height="50" rx="8" fill="#EF3500"/>
<path d="M0 8C0 3.58172 3.58172 0 8 0H51V50H8C3.58172 50 0 46.4183 0 42V8Z" fill="white"/>
<path fill-rule="evenodd" clip-rule="evenodd" d="M35.6129 25.5428C35.6129 24.8566 35.5513 24.1969 35.437 23.5635H26.3232V27.3066H31.5311C31.3068 28.5162 30.625 29.5411 29.6001 30.2272V32.6552H32.7275C34.5573 30.9706 35.6129 28.4898 35.6129 25.5428Z" fill="#4285F4"/>
<path fill-rule="evenodd" clip-rule="evenodd" d="M26.3233 34.9993C28.936 34.9993 31.1265 34.1328 32.7275 32.6549L29.6002 30.2269C28.7337 30.8075 27.6252 31.1506 26.3233 31.1506C23.8029 31.1506 21.6696 29.4484 20.9087 27.1611H17.6758V29.6683C19.268 32.8308 22.5406 34.9993 26.3233 34.9993Z" fill="#34A853"/>
<path fill-rule="evenodd" clip-rule="evenodd" d="M20.9087 27.1619C20.7151 26.5813 20.6052 25.9611 20.6052 25.3233C20.6052 24.6855 20.7151 24.0653 20.9087 23.4847V20.9775H17.6757C17.0204 22.2839 16.6465 23.7618 16.6465 25.3233C16.6465 26.8848 17.0204 28.3627 17.6757 29.669L20.9087 27.1619Z" fill="#FBBC05"/>
<path fill-rule="evenodd" clip-rule="evenodd" d="M26.3233 19.4952C27.744 19.4952 29.0196 19.9834 30.0224 20.9423L32.7979 18.1668C31.1221 16.6054 28.9316 15.6465 26.3233 15.6465C22.5406 15.6465 19.268 17.815 17.6758 20.9775L20.9087 23.4847C21.6696 21.1974 23.8029 19.4952 26.3233 19.4952Z" fill="#EA4335"/>
<path d="M106.788 29V19.0059H108.429V27.6055H112.674V29H106.788ZM120.938 25.1992C120.938 25.8281 120.856 26.3864 120.692 26.874C120.528 27.3617 120.289 27.7741 119.975 28.1113C119.66 28.444 119.282 28.6992 118.84 28.877C118.398 29.0501 117.899 29.1367 117.343 29.1367C116.823 29.1367 116.347 29.0501 115.914 28.877C115.481 28.6992 115.105 28.444 114.786 28.1113C114.472 27.7741 114.228 27.3617 114.055 26.874C113.882 26.3864 113.795 25.8281 113.795 25.1992C113.795 24.3652 113.938 23.6589 114.226 23.0801C114.517 22.4967 114.932 22.0524 115.47 21.7471C116.007 21.4417 116.648 21.2891 117.391 21.2891C118.088 21.2891 118.703 21.4417 119.236 21.7471C119.77 22.0524 120.187 22.4967 120.487 23.0801C120.788 23.6634 120.938 24.3698 120.938 25.1992ZM115.449 25.1992C115.449 25.7507 115.515 26.2223 115.647 26.6143C115.784 27.0062 115.994 27.307 116.276 27.5166C116.559 27.7217 116.924 27.8242 117.37 27.8242C117.817 27.8242 118.181 27.7217 118.464 27.5166C118.746 27.307 118.954 27.0062 119.086 26.6143C119.218 26.2223 119.284 25.7507 119.284 25.1992C119.284 24.6478 119.218 24.1807 119.086 23.7979C118.954 23.4105 118.746 23.1165 118.464 22.916C118.181 22.7109 117.814 22.6084 117.363 22.6084C116.698 22.6084 116.213 22.8317 115.907 23.2783C115.602 23.7249 115.449 24.3652 115.449 25.1992ZM124.944 32.3633C123.919 32.3633 123.133 32.1787 122.586 31.8096C122.039 31.4404 121.766 30.9232 121.766 30.2578C121.766 29.793 121.911 29.3988 122.203 29.0752C122.495 28.7562 122.912 28.5352 123.454 28.4121C123.249 28.321 123.071 28.1797 122.921 27.9883C122.775 27.7923 122.702 27.5758 122.702 27.3389C122.702 27.0563 122.782 26.8148 122.941 26.6143C123.101 26.4137 123.34 26.2201 123.659 26.0332C123.263 25.8646 122.944 25.5911 122.702 25.2129C122.465 24.8301 122.347 24.3812 122.347 23.8662C122.347 23.3193 122.463 22.8545 122.695 22.4717C122.928 22.0843 123.267 21.7904 123.714 21.5898C124.16 21.3848 124.701 21.2822 125.334 21.2822C125.471 21.2822 125.619 21.2913 125.778 21.3096C125.942 21.3232 126.093 21.3415 126.229 21.3643C126.371 21.3825 126.478 21.403 126.551 21.4258H129.169V22.3213L127.884 22.5605C128.007 22.7337 128.105 22.932 128.178 23.1553C128.251 23.374 128.287 23.6133 128.287 23.873C128.287 24.6569 128.016 25.2744 127.474 25.7256C126.936 26.1722 126.193 26.3955 125.245 26.3955C125.017 26.3864 124.796 26.3682 124.582 26.3408C124.418 26.4411 124.293 26.5527 124.206 26.6758C124.119 26.7943 124.076 26.9287 124.076 27.0791C124.076 27.2021 124.119 27.3024 124.206 27.3799C124.293 27.4528 124.42 27.5075 124.589 27.5439C124.762 27.5804 124.972 27.5986 125.218 27.5986H126.523C127.353 27.5986 127.986 27.7741 128.424 28.125C128.861 28.4759 129.08 28.9909 129.08 29.6699C129.08 30.5312 128.725 31.1943 128.014 31.6592C127.303 32.1286 126.28 32.3633 124.944 32.3633ZM125.006 31.2354C125.566 31.2354 126.038 31.1807 126.421 31.0713C126.804 30.9619 127.093 30.8047 127.289 30.5996C127.485 30.3991 127.583 30.1598 127.583 29.8818C127.583 29.6357 127.521 29.4466 127.398 29.3145C127.275 29.1823 127.091 29.0911 126.845 29.041C126.599 28.9909 126.293 28.9658 125.929 28.9658H124.739C124.443 28.9658 124.181 29.0114 123.953 29.1025C123.725 29.1982 123.548 29.335 123.42 29.5127C123.297 29.6904 123.235 29.9046 123.235 30.1553C123.235 30.5016 123.388 30.7682 123.693 30.9551C124.003 31.1419 124.441 31.2354 125.006 31.2354ZM125.32 25.3428C125.79 25.3428 126.138 25.2152 126.366 24.96C126.594 24.7002 126.708 24.3356 126.708 23.8662C126.708 23.3558 126.59 22.973 126.353 22.7178C126.12 22.4626 125.774 22.335 125.313 22.335C124.862 22.335 124.518 22.4648 124.281 22.7246C124.049 22.9844 123.933 23.3695 123.933 23.8799C123.933 24.3402 124.049 24.7002 124.281 24.96C124.518 25.2152 124.865 25.3428 125.32 25.3428ZM132.156 21.4326V29H130.55V21.4326H132.156ZM131.363 18.5342C131.609 18.5342 131.821 18.6003 131.999 18.7324C132.181 18.8646 132.272 19.0924 132.272 19.416C132.272 19.735 132.181 19.9629 131.999 20.0996C131.821 20.2318 131.609 20.2979 131.363 20.2979C131.108 20.2979 130.892 20.2318 130.714 20.0996C130.541 19.9629 130.454 19.735 130.454 19.416C130.454 19.0924 130.541 18.8646 130.714 18.7324C130.892 18.6003 131.108 18.5342 131.363 18.5342ZM138.404 21.2891C139.257 21.2891 139.92 21.5101 140.394 21.9521C140.872 22.3896 141.111 23.0938 141.111 24.0645V29H139.505V24.3652C139.505 23.7773 139.384 23.3376 139.143 23.0459C138.901 22.7497 138.527 22.6016 138.021 22.6016C137.288 22.6016 136.777 22.8271 136.49 23.2783C136.208 23.7295 136.066 24.3835 136.066 25.2402V29H134.46V21.4326H135.711L135.937 22.458H136.025C136.189 22.1937 136.392 21.9772 136.634 21.8086C136.88 21.6354 137.153 21.5055 137.454 21.4189C137.759 21.3324 138.076 21.2891 138.404 21.2891ZM158.98 19.0059L156.369 29H154.578L152.91 23.0117C152.869 22.8659 152.824 22.6927 152.773 22.4922C152.723 22.2917 152.673 22.0866 152.623 21.877C152.577 21.6673 152.536 21.4759 152.5 21.3027C152.468 21.125 152.445 20.9883 152.432 20.8926C152.423 20.9883 152.402 21.1227 152.37 21.2959C152.338 21.4691 152.299 21.6605 152.254 21.8701C152.213 22.0752 152.167 22.2803 152.117 22.4854C152.067 22.6859 152.021 22.8636 151.98 23.0186L150.34 29H148.556L145.951 19.0059H147.599L149.041 24.8643C149.087 25.0511 149.132 25.2539 149.178 25.4727C149.228 25.6868 149.273 25.9033 149.314 26.1221C149.36 26.3408 149.401 26.555 149.438 26.7646C149.474 26.9697 149.504 27.1566 149.526 27.3252C149.549 27.152 149.579 26.9606 149.615 26.751C149.652 26.5368 149.69 26.3203 149.731 26.1016C149.777 25.8783 149.823 25.6641 149.868 25.459C149.918 25.2539 149.968 25.0693 150.019 24.9053L151.646 19.0059H153.245L154.906 24.9258C154.956 25.0944 155.004 25.2835 155.05 25.4932C155.1 25.7028 155.148 25.917 155.193 26.1357C155.239 26.3545 155.28 26.5664 155.316 26.7715C155.353 26.9766 155.382 27.1611 155.405 27.3252C155.437 27.1019 155.478 26.8467 155.528 26.5596C155.578 26.2725 155.635 25.9808 155.699 25.6846C155.763 25.3883 155.827 25.1149 155.891 24.8643L157.326 19.0059H158.98ZM161.838 21.4326V29H160.231V21.4326H161.838ZM161.045 18.5342C161.291 18.5342 161.503 18.6003 161.681 18.7324C161.863 18.8646 161.954 19.0924 161.954 19.416C161.954 19.735 161.863 19.9629 161.681 20.0996C161.503 20.2318 161.291 20.2979 161.045 20.2979C160.79 20.2979 160.573 20.2318 160.396 20.0996C160.222 19.9629 160.136 19.735 160.136 19.416C160.136 19.0924 160.222 18.8646 160.396 18.7324C160.573 18.6003 160.79 18.5342 161.045 18.5342ZM166.958 27.8379C167.168 27.8379 167.375 27.8197 167.58 27.7832C167.785 27.7422 167.972 27.6943 168.141 27.6396V28.8564C167.963 28.9339 167.733 29 167.45 29.0547C167.168 29.1094 166.874 29.1367 166.568 29.1367C166.14 29.1367 165.755 29.0661 165.413 28.9248C165.071 28.779 164.8 28.5306 164.6 28.1797C164.399 27.8288 164.299 27.3434 164.299 26.7236V22.6562H163.267V21.9385L164.374 21.3711L164.9 19.751H165.912V21.4326H168.079V22.6562H165.912V26.7031C165.912 27.0859 166.008 27.3708 166.199 27.5576C166.391 27.7445 166.644 27.8379 166.958 27.8379ZM171.285 18.3633V21.0361C171.285 21.3141 171.276 21.5853 171.258 21.8496C171.244 22.1139 171.228 22.319 171.21 22.4648H171.299C171.458 22.2005 171.654 21.984 171.887 21.8154C172.119 21.6423 172.379 21.5124 172.666 21.4258C172.958 21.3392 173.268 21.2959 173.596 21.2959C174.174 21.2959 174.667 21.3939 175.072 21.5898C175.478 21.7812 175.788 22.0798 176.002 22.4854C176.221 22.891 176.33 23.4173 176.33 24.0645V29H174.724V24.3652C174.724 23.7773 174.603 23.3376 174.361 23.0459C174.12 22.7497 173.746 22.6016 173.24 22.6016C172.753 22.6016 172.365 22.7041 172.078 22.9092C171.796 23.1097 171.593 23.4082 171.47 23.8047C171.347 24.1966 171.285 24.6751 171.285 25.2402V29H169.679V18.3633H171.285ZM186.413 23.5723H190.146V28.5898C189.621 28.763 189.079 28.8975 188.519 28.9932C187.958 29.0889 187.329 29.1367 186.632 29.1367C185.616 29.1367 184.754 28.9362 184.048 28.5352C183.346 28.1296 182.813 27.5439 182.448 26.7783C182.084 26.0081 181.901 25.0807 181.901 23.9961C181.901 22.9525 182.104 22.0479 182.51 21.2822C182.915 20.512 183.506 19.9173 184.28 19.498C185.055 19.0742 185.994 18.8623 187.097 18.8623C187.639 18.8623 188.163 18.917 188.669 19.0264C189.179 19.1312 189.646 19.277 190.07 19.4639L189.496 20.8174C189.159 20.6579 188.781 20.5234 188.361 20.4141C187.942 20.3047 187.507 20.25 187.056 20.25C186.34 20.25 185.723 20.4049 185.203 20.7148C184.688 21.0247 184.292 21.4622 184.014 22.0273C183.736 22.5879 183.597 23.251 183.597 24.0166C183.597 24.7594 183.708 25.4111 183.932 25.9717C184.155 26.5322 184.504 26.9697 184.978 27.2842C185.456 27.5941 186.074 27.749 186.83 27.749C187.208 27.749 187.53 27.7285 187.794 27.6875C188.058 27.6465 188.302 27.6009 188.525 27.5508V24.9736H186.413V23.5723ZM200.926 21.2891C201.773 21.2891 202.411 21.5078 202.84 21.9453C203.273 22.3828 203.489 23.0846 203.489 24.0508V29H201.883V24.3379C201.883 23.7637 201.771 23.3307 201.548 23.0391C201.325 22.7474 200.985 22.6016 200.529 22.6016C199.891 22.6016 199.431 22.8066 199.148 23.2168C198.87 23.6224 198.731 24.2126 198.731 24.9873V29H197.125V24.3379C197.125 23.9551 197.075 23.6361 196.975 23.3809C196.879 23.1211 196.731 22.9274 196.53 22.7998C196.33 22.6676 196.077 22.6016 195.771 22.6016C195.329 22.6016 194.976 22.7018 194.712 22.9023C194.452 23.1029 194.265 23.3991 194.151 23.791C194.037 24.1784 193.98 24.6546 193.98 25.2197V29H192.374V21.4326H193.625L193.851 22.4512H193.939C194.094 22.1868 194.286 21.9704 194.514 21.8018C194.746 21.6286 195.004 21.501 195.286 21.4189C195.569 21.3324 195.863 21.2891 196.168 21.2891C196.733 21.2891 197.209 21.3893 197.597 21.5898C197.984 21.7858 198.273 22.0866 198.465 22.4922H198.588C198.825 22.082 199.155 21.779 199.579 21.583C200.003 21.387 200.452 21.2891 200.926 21.2891ZM208.698 21.2891C209.655 21.2891 210.378 21.501 210.865 21.9248C211.357 22.3486 211.604 23.0094 211.604 23.9072V29H210.462L210.154 27.9268H210.1C209.885 28.2002 209.664 28.4258 209.437 28.6035C209.209 28.7812 208.944 28.9134 208.644 29C208.347 29.0911 207.985 29.1367 207.557 29.1367C207.105 29.1367 206.702 29.0547 206.347 28.8906C205.991 28.722 205.711 28.4668 205.506 28.125C205.301 27.7832 205.198 27.3503 205.198 26.8262C205.198 26.0469 205.488 25.4613 206.066 25.0693C206.65 24.6774 207.529 24.4609 208.705 24.4199L210.018 24.3721V23.9756C210.018 23.4515 209.895 23.0778 209.648 22.8545C209.407 22.6312 209.065 22.5195 208.623 22.5195C208.245 22.5195 207.878 22.5742 207.522 22.6836C207.167 22.793 206.821 22.9274 206.483 23.0869L205.964 21.9521C206.333 21.7562 206.752 21.5967 207.222 21.4736C207.696 21.3506 208.188 21.2891 208.698 21.2891ZM210.011 25.3838L209.033 25.418C208.231 25.4453 207.668 25.582 207.345 25.8281C207.021 26.0742 206.859 26.4115 206.859 26.8398C206.859 27.2135 206.971 27.487 207.194 27.6602C207.418 27.8288 207.712 27.9131 208.076 27.9131C208.632 27.9131 209.092 27.7559 209.457 27.4414C209.826 27.1224 210.011 26.6553 210.011 26.04V25.3838ZM215.459 21.4326V29H213.853V21.4326H215.459ZM214.666 18.5342C214.912 18.5342 215.124 18.6003 215.302 18.7324C215.484 18.8646 215.575 19.0924 215.575 19.416C215.575 19.735 215.484 19.9629 215.302 20.0996C215.124 20.2318 214.912 20.2979 214.666 20.2979C214.411 20.2979 214.194 20.2318 214.017 20.0996C213.843 19.9629 213.757 19.735 213.757 19.416C213.757 19.0924 213.843 18.8646 214.017 18.7324C214.194 18.6003 214.411 18.5342 214.666 18.5342ZM219.376 29H217.763V18.3633H219.376V29Z" fill="white"/>
</svg>
